<svg width="414" height="140" viewBox="0 0 414 140" xmlns="http://www.w3.org/2000/svg" role="img" aria-label="metrixme"><defs><linearGradient id="rb" x1="5" y1="71" x2="91" y2="30" gradientUnits="userSpaceOnUse"><stop offset="0" stop-color="#FAFAF7"/><stop offset="1" stop-color="#93C5FD"/></linearGradient></defs><g transform="translate(24,23.9) scale(0.96)"><path d="M5 71 C16 32 37 24 52 42 C62 55 78 52 91 30 C82 62 60 76 46 58 C36 46 17 52 5 71 Z" fill="url(#rb)"/></g><g transform="translate(132.2,88.7)"><path d="M4.79 -0.00L4.79 -27.77L8.73 -27.77L8.73 -15.86L8.11 -15.86Q8.11 -19.91 9.17 -22.75Q10.25 -25.59 12.37 -27.09Q14.51 -28.60 17.79 -28.60L17.99 -28.60Q21.27 -28.60 23.42 -27.09Q25.59 -25.59 26.63 -22.75Q27.67 -19.91 27.67 -15.86L26.21 -15.86Q26.21 -19.91 27.30 -22.75Q28.39 -25.59 30.55 -27.09Q32.71 -28.60 35.99 -28.60L36.19 -28.60Q39.47 -28.60 41.65 -27.09Q43.83 -25.59 44.90 -22.75Q45.97 -19.91 45.97 -15.86L45.97 -0.00L40.97 -0.00L40.97 -16.95Q40.97 -20.33 39.31 -22.17Q37.65 -24.03 34.69 -24.03Q31.61 -24.03 29.74 -22.08Q27.87 -20.13 27.87 -16.64L27.87 -0.00L22.88 -0.00L22.88 -16.95Q22.88 -20.33 21.21 -22.17Q19.55 -24.03 16.59 -24.03Q13.52 -24.03 11.64 -22.08Q9.77 -20.13 9.77 -16.64L9.77 -0.00L4.79 -0.00ZM66.59 0.93Q62.95 0.93 60.29 -0.31Q57.65 -1.56 55.98 -3.62Q54.31 -5.67 53.51 -8.21Q52.71 -10.77 52.71 -13.41L52.71 -14.35Q52.71 -17.05 53.51 -19.60Q54.31 -22.15 55.98 -24.20Q57.65 -26.26 60.21 -27.48Q62.79 -28.71 66.27 -28.71Q70.80 -28.71 73.73 -26.76Q76.67 -24.81 78.10 -21.73Q79.53 -18.67 79.53 -15.19L79.53 -12.95L54.89 -12.95L54.89 -16.69L75.89 -16.69L74.75 -14.67Q74.75 -17.63 73.81 -19.78Q72.88 -21.95 71.00 -23.14Q69.13 -24.33 66.27 -24.33Q63.31 -24.33 61.36 -22.98Q59.41 -21.63 58.45 -19.29Q57.49 -16.95 57.49 -13.89Q57.49 -10.92 58.45 -8.56Q59.41 -6.19 61.44 -4.81Q63.47 -3.43 66.59 -3.43Q69.87 -3.43 71.91 -4.88Q73.97 -6.35 74.39 -8.27L79.07 -8.27Q78.49 -5.41 76.78 -3.33Q75.07 -1.25 72.47 -0.15Q69.87 0.93 66.59 0.93ZM97.60 0.31Q94.48 0.31 92.21 -0.57Q89.95 -1.45 88.73 -3.61Q87.51 -5.77 87.51 -9.47L87.51 -36.19L92.29 -36.19L92.29 -8.84Q92.29 -6.61 93.51 -5.38Q94.74 -4.16 96.97 -4.16L101.87 -4.16L101.87 0.31L97.60 0.31ZM82.73 -24.03L82.73 -27.77L101.87 -27.77L101.87 -24.03L82.73 -24.03ZM108.79 -0.00L108.79 -27.77L112.73 -27.77L112.73 -16.33L112.53 -16.33Q112.53 -22.41 115.20 -25.24Q117.89 -28.08 123.24 -28.08L124.17 -28.08L124.17 -23.61L122.41 -23.61Q118.25 -23.61 116.01 -21.40Q113.77 -19.19 113.77 -15.03L113.77 -0.00L108.79 -0.00ZM131.13 -0.00L131.13 -27.77L136.13 -27.77L136.13 -0.00L131.13 -0.00ZM126.87 -23.81L126.87 -27.77L136.13 -27.77L136.13 -23.81L126.87 -23.81ZM132.54 -32.24Q130.87 -32.24 130.07 -33.13Q129.27 -34.01 129.27 -35.36Q129.27 -36.71 130.07 -37.59Q130.87 -38.48 132.54 -38.48Q134.21 -38.48 135.01 -37.59Q135.81 -36.71 135.81 -35.36Q135.81 -34.01 135.01 -33.13Q134.21 -32.24 132.54 -32.24ZM142.45 -0.00L152.39 -14.61L152.23 -13.57L142.93 -27.77L148.43 -27.77L155.15 -17.31L155.87 -17.31L162.21 -27.77L167.37 -27.77L158.57 -13.93L158.73 -14.87L169.13 -0.00L163.62 -0.00L155.82 -11.29L155.09 -11.29L147.61 -0.00L142.45 -0.00ZM174.79 -0.00L174.79 -27.77L178.73 -27.77L178.73 -15.86L178.11 -15.86Q178.11 -19.91 179.17 -22.75Q180.25 -25.59 182.37 -27.09Q184.51 -28.60 187.79 -28.60L187.99 -28.60Q191.27 -28.60 193.42 -27.09Q195.59 -25.59 196.63 -22.75Q197.67 -19.91 197.67 -15.86L196.21 -15.86Q196.21 -19.91 197.30 -22.75Q198.39 -25.59 200.55 -27.09Q202.71 -28.60 205.99 -28.60L206.19 -28.60Q209.47 -28.60 211.65 -27.09Q213.83 -25.59 214.90 -22.75Q215.97 -19.91 215.97 -15.86L215.97 -0.00L210.97 -0.00L210.97 -16.95Q210.97 -20.33 209.31 -22.17Q207.65 -24.03 204.69 -24.03Q201.61 -24.03 199.74 -22.08Q197.87 -20.13 197.87 -16.64L197.87 -0.00L192.88 -0.00L192.88 -16.95Q192.88 -20.33 191.21 -22.17Q189.55 -24.03 186.59 -24.03Q183.52 -24.03 181.64 -22.08Q179.77 -20.13 179.77 -16.64L179.77 -0.00L174.79 -0.00ZM236.59 0.93Q232.95 0.93 230.29 -0.31Q227.65 -1.56 225.98 -3.62Q224.31 -5.67 223.51 -8.21Q222.71 -10.77 222.71 -13.41L222.71 -14.35Q222.71 -17.05 223.51 -19.60Q224.31 -22.15 225.98 -24.20Q227.65 -26.26 230.21 -27.48Q232.79 -28.71 236.27 -28.71Q240.80 -28.71 243.73 -26.76Q246.67 -24.81 248.10 -21.73Q249.53 -18.67 249.53 -15.19L249.53 -12.95L224.89 -12.95L224.89 -16.69L245.89 -16.69L244.75 -14.67Q244.75 -17.63 243.81 -19.78Q242.88 -21.95 241.00 -23.14Q239.13 -24.33 236.27 -24.33Q233.31 -24.33 231.36 -22.98Q229.41 -21.63 228.45 -19.29Q227.49 -16.95 227.49 -13.89Q227.49 -10.92 228.45 -8.56Q229.41 -6.19 231.44 -4.81Q233.47 -3.43 236.59 -3.43Q239.87 -3.43 241.91 -4.88Q243.97 -6.35 244.39 -8.27L249.07 -8.27Q248.49 -5.41 246.78 -3.33Q245.07 -1.25 242.47 -0.15Q239.87 0.93 236.59 0.93Z" fill="#FAFAF7"/></g></svg>